<?xml version="1.0" standalone="no"?>
<!DOCTYPE svg PUBLIC "-//W3C//DTD SVG 20010904//EN"
 "http://www.w3.org/TR/2001/REC-SVG-20010904/DTD/svg10.dtd">
<svg version="1.0" xmlns="http://www.w3.org/2000/svg"
 width="512.000000pt" height="512.000000pt" viewBox="0 0 512.000000 512.000000"
 preserveAspectRatio="xMidYMid meet">

<g transform="translate(0.000000,512.000000) scale(0.100000,-0.100000)"
fill="#000000" stroke="none">
<path d="M794 5049 c-81 -9 -216 -50 -289 -86 -129 -65 -266 -183 -345 -297
-49 -72 -108 -203 -132 -296 l-23 -85 0 -1725 0 -1725 23 -85 c24 -93 83 -224
132 -296 79 -114 216 -232 345 -297 80 -40 204 -75 308 -86 134 -15 3360 -15
3494 0 383 42 686 305 785 679 l23 85 0 1725 0 1725 -23 85 c-24 93 -83 224
-132 296 -79 114 -216 232 -345 297 -77 38 -201 74 -300 86 -107 13 -3409 13
-3521 0z m1189 -1270 c258 -22 430 -94 578 -239 89 -88 146 -193 180 -329 18
-72 20 -104 16 -225 -5 -158 -19 -221 -74 -336 -28 -59 -56 -95 -127 -166 -78
-78 -106 -98 -186 -137 -165 -79 -317 -107 -592 -107 l-168 0 0 -355 0 -355
-227 2 -228 3 -3 1109 c-1 711 1 1113 8 1120 5 5 121 12 262 16 399 10 436 10
561 -1z m1942 -540 c42 -5 106 -20 143 -32 53 -18 68 -28 73 -47 4 -14 7 -100
8 -191 1 -215 2 -214 -103 -170 -168 70 -440 97 -537 54 -32 -14 -49 -30 -58
-51 -35 -85 33 -145 269 -237 361 -140 495 -275 508 -509 8 -158 -30 -265
-134 -376 -106 -112 -238 -168 -452 -191 -204 -22 -510 23 -619 91 l-33 20 0
199 c0 120 4 202 10 206 5 3 42 -10 82 -29 254 -122 619 -141 673 -35 21 39
19 72 -6 103 -32 41 -79 67 -233 130 -303 123 -438 233 -495 403 -26 76 -28
192 -6 278 55 210 246 358 510 394 80 11 287 6 400 -10z"/>
<path d="M1678 3363 l-58 -4 0 -361 0 -361 168 6 c173 6 248 20 327 59 70 36
122 85 152 146 25 51 28 68 28 157 0 123 -22 181 -96 250 -81 76 -168 103
-344 109 -66 2 -146 2 -177 -1z"/>
</g>
</svg>
